<mxfile host="app.diagrams.net" agent="Mozilla/5.0 (Windows NT 10.0; Win64; x64) AppleWebKit/537.36 (KHTML, like Gecko) Chrome/130.0.0.0 Safari/537.36" version="24.8.3">
  <diagram name="Página-1" id="rCG3eZJyJU8VCeqgCgNy">
    <mxGraphModel dx="989" dy="532" grid="1" gridSize="10" guides="1" tooltips="1" connect="1" arrows="1" fold="1" page="1" pageScale="1" pageWidth="1169" pageHeight="827" math="0" shadow="0">
      <root>
        <mxCell id="0" />
        <mxCell id="1" parent="0" />
        <mxCell id="12" value="Banco de dados" style="swimlane;fontStyle=1;align=center;verticalAlign=top;childLayout=stackLayout;horizontal=1;startSize=27.428571428571427;horizontalStack=0;resizeParent=1;resizeParentMax=0;resizeLast=0;collapsible=0;marginBottom=0;" parent="1" vertex="1">
          <mxGeometry x="1014" y="370" width="155" height="149.99857142857144" as="geometry" />
        </mxCell>
        <mxCell id="13" value="Cria usuário" style="text;strokeColor=none;fillColor=none;align=left;verticalAlign=top;spacingLeft=4;spacingRight=4;overflow=hidden;rotatable=0;points=[[0,0.5],[1,0.5]];portConstraint=eastwest;" parent="12" vertex="1">
          <mxGeometry y="27.428571428571427" width="155" height="27" as="geometry" />
        </mxCell>
        <mxCell id="14" value="Edita usuário" style="text;strokeColor=none;fillColor=none;align=left;verticalAlign=top;spacingLeft=4;spacingRight=4;overflow=hidden;rotatable=0;points=[[0,0.5],[1,0.5]];portConstraint=eastwest;" parent="12" vertex="1">
          <mxGeometry y="54.42857142857143" width="155" height="27" as="geometry" />
        </mxCell>
        <mxCell id="15" style="line;strokeWidth=1;fillColor=none;align=left;verticalAlign=middle;spacingTop=-1;spacingLeft=3;spacingRight=3;rotatable=0;labelPosition=right;points=[];portConstraint=eastwest;strokeColor=inherit;" parent="12" vertex="1">
          <mxGeometry y="81.42857142857143" width="155" height="68.57" as="geometry" />
        </mxCell>
        <mxCell id="17" value="" style="curved=1;startArrow=block;startSize=16;startFill=0;endArrow=none;" parent="1" edge="1">
          <mxGeometry relative="1" as="geometry">
            <Array as="points" />
            <mxPoint x="30" y="250" as="sourcePoint" />
            <mxPoint x="40" y="310" as="targetPoint" />
          </mxGeometry>
        </mxCell>
        <mxCell id="4yD3N3-tQXwb2mGsDQmI-18" value="" style="curved=1;startArrow=open;startSize=12;endArrow=none;fontColor=#FFFFFF;strokeColor=#000000;" edge="1" parent="1">
          <mxGeometry relative="1" as="geometry">
            <Array as="points">
              <mxPoint x="39" y="352" />
            </Array>
            <mxPoint x="36" y="400" as="sourcePoint" />
            <mxPoint x="30" y="330" as="targetPoint" />
          </mxGeometry>
        </mxCell>
        <mxCell id="4yD3N3-tQXwb2mGsDQmI-32" value="User Admin" style="swimlane;fontStyle=1;align=center;verticalAlign=top;childLayout=stackLayout;horizontal=1;startSize=27.428571428571427;horizontalStack=0;resizeParent=1;resizeParentMax=0;resizeLast=0;collapsible=0;marginBottom=0;" vertex="1" parent="1">
          <mxGeometry x="520" y="190" width="155" height="122.42857142857143" as="geometry" />
        </mxCell>
        <mxCell id="4yD3N3-tQXwb2mGsDQmI-33" value="Id_admin" style="text;strokeColor=none;fillColor=none;align=left;verticalAlign=top;spacingLeft=4;spacingRight=4;overflow=hidden;rotatable=0;points=[[0,0.5],[1,0.5]];portConstraint=eastwest;" vertex="1" parent="4yD3N3-tQXwb2mGsDQmI-32">
          <mxGeometry y="27.428571428571427" width="155" height="27" as="geometry" />
        </mxCell>
        <mxCell id="4yD3N3-tQXwb2mGsDQmI-34" value="Nome de usuário" style="text;strokeColor=none;fillColor=none;align=left;verticalAlign=top;spacingLeft=4;spacingRight=4;overflow=hidden;rotatable=0;points=[[0,0.5],[1,0.5]];portConstraint=eastwest;" vertex="1" parent="4yD3N3-tQXwb2mGsDQmI-32">
          <mxGeometry y="54.42857142857143" width="155" height="27" as="geometry" />
        </mxCell>
        <mxCell id="4yD3N3-tQXwb2mGsDQmI-65" value="Senha" style="text;strokeColor=none;fillColor=none;align=left;verticalAlign=top;spacingLeft=4;spacingRight=4;overflow=hidden;rotatable=0;points=[[0,0.5],[1,0.5]];portConstraint=eastwest;" vertex="1" parent="4yD3N3-tQXwb2mGsDQmI-32">
          <mxGeometry y="81.42857142857143" width="155" height="27" as="geometry" />
        </mxCell>
        <mxCell id="4yD3N3-tQXwb2mGsDQmI-35" style="line;strokeWidth=1;fillColor=none;align=left;verticalAlign=middle;spacingTop=-1;spacingLeft=3;spacingRight=3;rotatable=0;labelPosition=right;points=[];portConstraint=eastwest;strokeColor=inherit;" vertex="1" parent="4yD3N3-tQXwb2mGsDQmI-32">
          <mxGeometry y="108.42857142857143" width="155" height="14" as="geometry" />
        </mxCell>
        <mxCell id="4yD3N3-tQXwb2mGsDQmI-36" value="Relatórios" style="swimlane;fontStyle=1;align=center;verticalAlign=top;childLayout=stackLayout;horizontal=1;startSize=27.428571428571427;horizontalStack=0;resizeParent=1;resizeParentMax=0;resizeLast=0;collapsible=0;marginBottom=0;" vertex="1" parent="1">
          <mxGeometry x="167" y="530" width="155" height="95.42857142857143" as="geometry" />
        </mxCell>
        <mxCell id="4yD3N3-tQXwb2mGsDQmI-37" value="Id_relatorio" style="text;strokeColor=none;fillColor=none;align=left;verticalAlign=top;spacingLeft=4;spacingRight=4;overflow=hidden;rotatable=0;points=[[0,0.5],[1,0.5]];portConstraint=eastwest;" vertex="1" parent="4yD3N3-tQXwb2mGsDQmI-36">
          <mxGeometry y="27.428571428571427" width="155" height="27" as="geometry" />
        </mxCell>
        <mxCell id="4yD3N3-tQXwb2mGsDQmI-38" value="Tipo de relatório" style="text;strokeColor=none;fillColor=none;align=left;verticalAlign=top;spacingLeft=4;spacingRight=4;overflow=hidden;rotatable=0;points=[[0,0.5],[1,0.5]];portConstraint=eastwest;" vertex="1" parent="4yD3N3-tQXwb2mGsDQmI-36">
          <mxGeometry y="54.42857142857143" width="155" height="27" as="geometry" />
        </mxCell>
        <mxCell id="4yD3N3-tQXwb2mGsDQmI-39" style="line;strokeWidth=1;fillColor=none;align=left;verticalAlign=middle;spacingTop=-1;spacingLeft=3;spacingRight=3;rotatable=0;labelPosition=right;points=[];portConstraint=eastwest;strokeColor=inherit;" vertex="1" parent="4yD3N3-tQXwb2mGsDQmI-36">
          <mxGeometry y="81.42857142857143" width="155" height="14" as="geometry" />
        </mxCell>
        <mxCell id="4yD3N3-tQXwb2mGsDQmI-40" value="Vendas diárias" style="swimlane;fontStyle=1;align=center;verticalAlign=top;childLayout=stackLayout;horizontal=1;startSize=27.428571428571427;horizontalStack=0;resizeParent=1;resizeParentMax=0;resizeLast=0;collapsible=0;marginBottom=0;" vertex="1" parent="1">
          <mxGeometry x="800" y="163" width="155" height="203.42857142857144" as="geometry" />
        </mxCell>
        <mxCell id="4yD3N3-tQXwb2mGsDQmI-41" value="Id_venda" style="text;strokeColor=none;fillColor=none;align=left;verticalAlign=top;spacingLeft=4;spacingRight=4;overflow=hidden;rotatable=0;points=[[0,0.5],[1,0.5]];portConstraint=eastwest;" vertex="1" parent="4yD3N3-tQXwb2mGsDQmI-40">
          <mxGeometry y="27.428571428571427" width="155" height="27" as="geometry" />
        </mxCell>
        <mxCell id="4yD3N3-tQXwb2mGsDQmI-42" value="Id_Funcionário" style="text;strokeColor=none;fillColor=none;align=left;verticalAlign=top;spacingLeft=4;spacingRight=4;overflow=hidden;rotatable=0;points=[[0,0.5],[1,0.5]];portConstraint=eastwest;" vertex="1" parent="4yD3N3-tQXwb2mGsDQmI-40">
          <mxGeometry y="54.42857142857143" width="155" height="27" as="geometry" />
        </mxCell>
        <mxCell id="4yD3N3-tQXwb2mGsDQmI-79" value="Tipo_comprador" style="text;strokeColor=none;fillColor=none;align=left;verticalAlign=top;spacingLeft=4;spacingRight=4;overflow=hidden;rotatable=0;points=[[0,0.5],[1,0.5]];portConstraint=eastwest;" vertex="1" parent="4yD3N3-tQXwb2mGsDQmI-40">
          <mxGeometry y="81.42857142857143" width="155" height="27" as="geometry" />
        </mxCell>
        <mxCell id="4yD3N3-tQXwb2mGsDQmI-80" value="Forma de pagamento" style="text;strokeColor=none;fillColor=none;align=left;verticalAlign=top;spacingLeft=4;spacingRight=4;overflow=hidden;rotatable=0;points=[[0,0.5],[1,0.5]];portConstraint=eastwest;" vertex="1" parent="4yD3N3-tQXwb2mGsDQmI-40">
          <mxGeometry y="108.42857142857143" width="155" height="27" as="geometry" />
        </mxCell>
        <mxCell id="4yD3N3-tQXwb2mGsDQmI-81" value="Data" style="text;strokeColor=none;fillColor=none;align=left;verticalAlign=top;spacingLeft=4;spacingRight=4;overflow=hidden;rotatable=0;points=[[0,0.5],[1,0.5]];portConstraint=eastwest;" vertex="1" parent="4yD3N3-tQXwb2mGsDQmI-40">
          <mxGeometry y="135.42857142857144" width="155" height="27" as="geometry" />
        </mxCell>
        <mxCell id="4yD3N3-tQXwb2mGsDQmI-83" value="Forma de pagamento " style="text;strokeColor=none;fillColor=none;align=left;verticalAlign=top;spacingLeft=4;spacingRight=4;overflow=hidden;rotatable=0;points=[[0,0.5],[1,0.5]];portConstraint=eastwest;" vertex="1" parent="4yD3N3-tQXwb2mGsDQmI-40">
          <mxGeometry y="162.42857142857144" width="155" height="27" as="geometry" />
        </mxCell>
        <mxCell id="4yD3N3-tQXwb2mGsDQmI-43" style="line;strokeWidth=1;fillColor=none;align=left;verticalAlign=middle;spacingTop=-1;spacingLeft=3;spacingRight=3;rotatable=0;labelPosition=right;points=[];portConstraint=eastwest;strokeColor=inherit;" vertex="1" parent="4yD3N3-tQXwb2mGsDQmI-40">
          <mxGeometry y="189.42857142857144" width="155" height="14" as="geometry" />
        </mxCell>
        <mxCell id="4yD3N3-tQXwb2mGsDQmI-44" value="Funcionários " style="swimlane;fontStyle=1;align=center;verticalAlign=top;childLayout=stackLayout;horizontal=1;startSize=27.428571428571427;horizontalStack=0;resizeParent=1;resizeParentMax=0;resizeLast=0;collapsible=0;marginBottom=0;" vertex="1" parent="1">
          <mxGeometry x="170" y="190" width="155" height="122.42857142857143" as="geometry" />
        </mxCell>
        <mxCell id="4yD3N3-tQXwb2mGsDQmI-45" value="Id_funcionario" style="text;strokeColor=none;fillColor=none;align=left;verticalAlign=top;spacingLeft=4;spacingRight=4;overflow=hidden;rotatable=0;points=[[0,0.5],[1,0.5]];portConstraint=eastwest;" vertex="1" parent="4yD3N3-tQXwb2mGsDQmI-44">
          <mxGeometry y="27.428571428571427" width="155" height="27" as="geometry" />
        </mxCell>
        <mxCell id="4yD3N3-tQXwb2mGsDQmI-46" value="Nome" style="text;strokeColor=none;fillColor=none;align=left;verticalAlign=top;spacingLeft=4;spacingRight=4;overflow=hidden;rotatable=0;points=[[0,0.5],[1,0.5]];portConstraint=eastwest;" vertex="1" parent="4yD3N3-tQXwb2mGsDQmI-44">
          <mxGeometry y="54.42857142857143" width="155" height="27" as="geometry" />
        </mxCell>
        <mxCell id="4yD3N3-tQXwb2mGsDQmI-70" value="Cargo" style="text;strokeColor=none;fillColor=none;align=left;verticalAlign=top;spacingLeft=4;spacingRight=4;overflow=hidden;rotatable=0;points=[[0,0.5],[1,0.5]];portConstraint=eastwest;" vertex="1" parent="4yD3N3-tQXwb2mGsDQmI-44">
          <mxGeometry y="81.42857142857143" width="155" height="27" as="geometry" />
        </mxCell>
        <mxCell id="4yD3N3-tQXwb2mGsDQmI-47" style="line;strokeWidth=1;fillColor=none;align=left;verticalAlign=middle;spacingTop=-1;spacingLeft=3;spacingRight=3;rotatable=0;labelPosition=right;points=[];portConstraint=eastwest;strokeColor=inherit;" vertex="1" parent="4yD3N3-tQXwb2mGsDQmI-44">
          <mxGeometry y="108.42857142857143" width="155" height="14" as="geometry" />
        </mxCell>
        <mxCell id="4yD3N3-tQXwb2mGsDQmI-56" value="Notificações" style="swimlane;fontStyle=1;align=center;verticalAlign=top;childLayout=stackLayout;horizontal=1;startSize=27.428571428571427;horizontalStack=0;resizeParent=1;resizeParentMax=0;resizeLast=0;collapsible=0;marginBottom=0;" vertex="1" parent="1">
          <mxGeometry x="847" y="530" width="155" height="95.42857142857143" as="geometry" />
        </mxCell>
        <mxCell id="4yD3N3-tQXwb2mGsDQmI-57" value="Id" style="text;strokeColor=none;fillColor=none;align=left;verticalAlign=top;spacingLeft=4;spacingRight=4;overflow=hidden;rotatable=0;points=[[0,0.5],[1,0.5]];portConstraint=eastwest;" vertex="1" parent="4yD3N3-tQXwb2mGsDQmI-56">
          <mxGeometry y="27.428571428571427" width="155" height="27" as="geometry" />
        </mxCell>
        <mxCell id="4yD3N3-tQXwb2mGsDQmI-58" value="Nome de usuário" style="text;strokeColor=none;fillColor=none;align=left;verticalAlign=top;spacingLeft=4;spacingRight=4;overflow=hidden;rotatable=0;points=[[0,0.5],[1,0.5]];portConstraint=eastwest;" vertex="1" parent="4yD3N3-tQXwb2mGsDQmI-56">
          <mxGeometry y="54.42857142857143" width="155" height="27" as="geometry" />
        </mxCell>
        <mxCell id="4yD3N3-tQXwb2mGsDQmI-59" style="line;strokeWidth=1;fillColor=none;align=left;verticalAlign=middle;spacingTop=-1;spacingLeft=3;spacingRight=3;rotatable=0;labelPosition=right;points=[];portConstraint=eastwest;strokeColor=inherit;" vertex="1" parent="4yD3N3-tQXwb2mGsDQmI-56">
          <mxGeometry y="81.42857142857143" width="155" height="14" as="geometry" />
        </mxCell>
        <mxCell id="4yD3N3-tQXwb2mGsDQmI-60" value="Produtos" style="swimlane;fontStyle=1;align=center;verticalAlign=top;childLayout=stackLayout;horizontal=1;startSize=27.428571428571427;horizontalStack=0;resizeParent=1;resizeParentMax=0;resizeLast=0;collapsible=0;marginBottom=0;" vertex="1" parent="1">
          <mxGeometry x="524" y="530" width="155" height="176.42857142857144" as="geometry" />
        </mxCell>
        <mxCell id="4yD3N3-tQXwb2mGsDQmI-61" value="Id_produto" style="text;strokeColor=none;fillColor=none;align=left;verticalAlign=top;spacingLeft=4;spacingRight=4;overflow=hidden;rotatable=0;points=[[0,0.5],[1,0.5]];portConstraint=eastwest;" vertex="1" parent="4yD3N3-tQXwb2mGsDQmI-60">
          <mxGeometry y="27.428571428571427" width="155" height="27" as="geometry" />
        </mxCell>
        <mxCell id="4yD3N3-tQXwb2mGsDQmI-62" value="Nome" style="text;strokeColor=none;fillColor=none;align=left;verticalAlign=top;spacingLeft=4;spacingRight=4;overflow=hidden;rotatable=0;points=[[0,0.5],[1,0.5]];portConstraint=eastwest;" vertex="1" parent="4yD3N3-tQXwb2mGsDQmI-60">
          <mxGeometry y="54.42857142857143" width="155" height="27" as="geometry" />
        </mxCell>
        <mxCell id="4yD3N3-tQXwb2mGsDQmI-71" value="Categoria" style="text;strokeColor=none;fillColor=none;align=left;verticalAlign=top;spacingLeft=4;spacingRight=4;overflow=hidden;rotatable=0;points=[[0,0.5],[1,0.5]];portConstraint=eastwest;" vertex="1" parent="4yD3N3-tQXwb2mGsDQmI-60">
          <mxGeometry y="81.42857142857143" width="155" height="27" as="geometry" />
        </mxCell>
        <mxCell id="4yD3N3-tQXwb2mGsDQmI-72" value="Preço" style="text;strokeColor=none;fillColor=none;align=left;verticalAlign=top;spacingLeft=4;spacingRight=4;overflow=hidden;rotatable=0;points=[[0,0.5],[1,0.5]];portConstraint=eastwest;" vertex="1" parent="4yD3N3-tQXwb2mGsDQmI-60">
          <mxGeometry y="108.42857142857143" width="155" height="27" as="geometry" />
        </mxCell>
        <mxCell id="4yD3N3-tQXwb2mGsDQmI-73" value="Quantidade" style="text;strokeColor=none;fillColor=none;align=left;verticalAlign=top;spacingLeft=4;spacingRight=4;overflow=hidden;rotatable=0;points=[[0,0.5],[1,0.5]];portConstraint=eastwest;" vertex="1" parent="4yD3N3-tQXwb2mGsDQmI-60">
          <mxGeometry y="135.42857142857144" width="155" height="27" as="geometry" />
        </mxCell>
        <mxCell id="4yD3N3-tQXwb2mGsDQmI-63" style="line;strokeWidth=1;fillColor=none;align=left;verticalAlign=middle;spacingTop=-1;spacingLeft=3;spacingRight=3;rotatable=0;labelPosition=right;points=[];portConstraint=eastwest;strokeColor=inherit;" vertex="1" parent="4yD3N3-tQXwb2mGsDQmI-60">
          <mxGeometry y="162.42857142857144" width="155" height="14" as="geometry" />
        </mxCell>
        <mxCell id="4yD3N3-tQXwb2mGsDQmI-66" value="Interface" style="swimlane;fontStyle=1;align=center;verticalAlign=top;childLayout=stackLayout;horizontal=1;startSize=27.428571428571427;horizontalStack=0;resizeParent=1;resizeParentMax=0;resizeLast=0;collapsible=0;marginBottom=0;" vertex="1" parent="1">
          <mxGeometry x="80" y="370" width="155" height="95.42857142857143" as="geometry" />
        </mxCell>
        <mxCell id="4yD3N3-tQXwb2mGsDQmI-67" value="Id" style="text;strokeColor=none;fillColor=none;align=left;verticalAlign=top;spacingLeft=4;spacingRight=4;overflow=hidden;rotatable=0;points=[[0,0.5],[1,0.5]];portConstraint=eastwest;" vertex="1" parent="4yD3N3-tQXwb2mGsDQmI-66">
          <mxGeometry y="27.428571428571427" width="155" height="27" as="geometry" />
        </mxCell>
        <mxCell id="4yD3N3-tQXwb2mGsDQmI-68" value="Nome de usuário" style="text;strokeColor=none;fillColor=none;align=left;verticalAlign=top;spacingLeft=4;spacingRight=4;overflow=hidden;rotatable=0;points=[[0,0.5],[1,0.5]];portConstraint=eastwest;" vertex="1" parent="4yD3N3-tQXwb2mGsDQmI-66">
          <mxGeometry y="54.42857142857143" width="155" height="27" as="geometry" />
        </mxCell>
        <mxCell id="4yD3N3-tQXwb2mGsDQmI-69" style="line;strokeWidth=1;fillColor=none;align=left;verticalAlign=middle;spacingTop=-1;spacingLeft=3;spacingRight=3;rotatable=0;labelPosition=right;points=[];portConstraint=eastwest;strokeColor=inherit;" vertex="1" parent="4yD3N3-tQXwb2mGsDQmI-66">
          <mxGeometry y="81.42857142857143" width="155" height="14" as="geometry" />
        </mxCell>
        <mxCell id="4yD3N3-tQXwb2mGsDQmI-74" value="Alunos" style="swimlane;fontStyle=1;align=center;verticalAlign=top;childLayout=stackLayout;horizontal=1;startSize=27.428571428571427;horizontalStack=0;resizeParent=1;resizeParentMax=0;resizeLast=0;collapsible=0;marginBottom=0;" vertex="1" parent="1">
          <mxGeometry x="330" y="50" width="155" height="122.42857142857143" as="geometry" />
        </mxCell>
        <mxCell id="4yD3N3-tQXwb2mGsDQmI-75" value="Id_alun " style="text;strokeColor=none;fillColor=none;align=left;verticalAlign=top;spacingLeft=4;spacingRight=4;overflow=hidden;rotatable=0;points=[[0,0.5],[1,0.5]];portConstraint=eastwest;" vertex="1" parent="4yD3N3-tQXwb2mGsDQmI-74">
          <mxGeometry y="27.428571428571427" width="155" height="27" as="geometry" />
        </mxCell>
        <mxCell id="4yD3N3-tQXwb2mGsDQmI-76" value="Nome" style="text;strokeColor=none;fillColor=none;align=left;verticalAlign=top;spacingLeft=4;spacingRight=4;overflow=hidden;rotatable=0;points=[[0,0.5],[1,0.5]];portConstraint=eastwest;" vertex="1" parent="4yD3N3-tQXwb2mGsDQmI-74">
          <mxGeometry y="54.42857142857143" width="155" height="27" as="geometry" />
        </mxCell>
        <mxCell id="4yD3N3-tQXwb2mGsDQmI-77" value="Cargo" style="text;strokeColor=none;fillColor=none;align=left;verticalAlign=top;spacingLeft=4;spacingRight=4;overflow=hidden;rotatable=0;points=[[0,0.5],[1,0.5]];portConstraint=eastwest;" vertex="1" parent="4yD3N3-tQXwb2mGsDQmI-74">
          <mxGeometry y="81.42857142857143" width="155" height="27" as="geometry" />
        </mxCell>
        <mxCell id="4yD3N3-tQXwb2mGsDQmI-78" style="line;strokeWidth=1;fillColor=none;align=left;verticalAlign=middle;spacingTop=-1;spacingLeft=3;spacingRight=3;rotatable=0;labelPosition=right;points=[];portConstraint=eastwest;strokeColor=inherit;" vertex="1" parent="4yD3N3-tQXwb2mGsDQmI-74">
          <mxGeometry y="108.42857142857143" width="155" height="14" as="geometry" />
        </mxCell>
      </root>
    </mxGraphModel>
  </diagram>
</mxfile>
